<?xml version="1.0" encoding="UTF-8"?>

<!DOCTYPE svg PUBLIC "-//W3C//DTD SVG 1.1//EN"
  "http://www.w3.org/Graphics/SVG/1.1/DTD/svg11.dtd" [
 <!ATTLIST g apsname CDATA #IMPLIED>
]>

<svg
 xmlns="http://www.w3.org/2000/svg"
 xmlns:xlink="http://www.w3.org/1999/xlink"
 xmlns:ev="http://www.w3.org/2001/xml-events"
 version="1.1"
 width="63.00pt" height="42.00pt"
 viewBox="0 0 20.16 13.07"
 stroke-linejoin="round" stroke-linecap="round" fill="none" fill-rule="evenodd"
 preserveAspectRatio="xMidYMid meet"
 zoomAndPan="magnify">

<rect fill="#FFFFFF" stroke="none" x="0" y="0" width="20.16" height="13.07"/>

<g id="0015.cgm">
<g id="IC_ColorNameTable.IC_ColorNameTable">
</g>
<g id="IC_ViewportTable.IC_ViewportTable">
</g>
<g id="PictureProperties.0015.cgm">
</g>
<clipPath id="cp1" clip-rule="evenodd">
 <path d=" M0 1 L19.16 1 L19.16 13.07 L0 13.07 Z"/>
</clipPath>

<g clip-path="url(#cp1)" clip-rule="evenodd">

<path class="ls2 fs2" d="M.83 12.27l0 -10.47 17.5 0 0 10.47 Z"/>
<path class="ls3 fs3" d="M10.32 8.37l1.05 0 .13 .72 .18 .34 .27 .3 .33 .23 .43 .17 .36 .08 .4 .03 .46 -.02 .42 -.09 .38 -.15 .28 -.18 .23 -.23 .15 -.25 .07 -.24 .03 -.3 -.04 -.31 -.08 -.22 -.16 -.2 -.28 -.2 -.27 -.12 -.5 -.15 -.9 -.21 -.85 -.21 -.53 -.17 -.33 -.14 -.32 -.2 -.23 -.21 -.21 -.28 -.15 -.34 -.07 -.34 -.02 -.39 .05 -.4 .11 -.36 .22 -.4 .3 -.34 .43 -.31 .56 -.24 .49 -.11 .59 -.05 .68 .03 .56 .12 .56 .24 .45 .32 .37 .43 .23 .47 .12 .64 .02 .27 -1.04 0 -.04 -.24 -.07 -.31 -.16 -.33 -.26 -.3 -.32 -.21 -.39 -.15 -.36 -.07 -.43 -.02 -.67 .1 -.35 .14 -.26 .17 -.18 .2 -.12 .22 -.08 .42 .06 .42 .1 .21 .14 .16 .18 .12 .36 .14 .75 .2 .85 .2 .78 .19 .47 .15 .28 .13 .34 .22 .26 .26 .19 .31 .14 .37 .06 .35 0 .4 -.07 .44 -.13 .38 -.24 .4 -.33 .35 -.45 .31 -.58 .24 -.63 .14 -.78 .04 -.74 -.07 -.56 -.15 -.56 -.28 -.45 -.37 -.35 -.45 -.24 -.54 -.13 -.64 Z"/>
<path class="ls3 fs3" d="M3.06 8.37l1.05 0 .13 .72 .18 .34 .27 .3 .33 .23 .43 .17 .36 .08 .4 .03 .46 -.02 .42 -.09 .38 -.15 .28 -.18 .23 -.23 .15 -.25 .08 -.24 .03 -.3 -.04 -.31 -.08 -.22 -.16 -.2 -.28 -.2 -.27 -.12 -.5 -.15 -.9 -.21 -.85 -.21 -.53 -.17 -.33 -.14 -.32 -.2 -.23 -.21 -.21 -.28 -.15 -.34 -.08 -.34 -.02 -.39 .06 -.4 .11 -.36 .22 -.4 .3 -.34 .43 -.31 .56 -.24 .49 -.11 .59 -.05 .68 .03 .56 .12 .56 .24 .45 .32 .37 .43 .23 .47 .12 .64 .02 .27 -1.04 0 -.04 -.24 -.07 -.31 -.16 -.33 -.26 -.3 -.31 -.21 -.39 -.15 -.36 -.07 -.43 -.02 -.67 .1 -.35 .14 -.25 .17 -.18 .2 -.12 .22 -.08 .42 .06 .42 .1 .21 .14 .16 .18 .12 .36 .14 .75 .2 .85 .2 .78 .19 .47 .15 .28 .13 .34 .22 .26 .26 .2 .31 .14 .37 .06 .35 0 .4 -.07 .44 -.13 .38 -.24 .4 -.32 .35 -.45 .31 -.58 .24 -.63 .14 -.78 .04 -.74 -.07 -.56 -.15 -.56 -.28 -.45 -.37 -.35 -.45 -.24 -.54 -.13 -.64 Z"/>
</g>
<g transform="translate(4.09,12.99)">
 <g transform="rotate(-45.00)">
  <g transform="skewX(180.00)">
  </g>
 </g>
</g>


<style type="text/css">
.aps-region:hover{stroke:red;opacity:0.5;}
.ls1{stroke:none;}
.ls2{stroke:#EBB7ED;stroke-width:1.653;}
.ls3{stroke:#EBB7ED;stroke-width:0.01;}
.fs1{fill:none;}
.fs2{fill:#EAFFF3;}
.fs3{fill:#EBB7ED;}
</style>

</g>
</svg>
