<?xml version="1.0" encoding="utf-8"?>
<!-- Generator: Adobe Illustrator 14.0.0, SVG Export Plug-In  -->
<!DOCTYPE svg PUBLIC "-//W3C//DTD SVG 1.1//EN" "http://www.w3.org/Graphics/SVG/1.1/DTD/svg11.dtd" [
	<!ENTITY ns_flows "http://ns.adobe.com/Flows/1.0/">
]>
<svg version="1.1"
	 xmlns="http://www.w3.org/2000/svg" xmlns:xlink="http://www.w3.org/1999/xlink" xmlns:a="http://ns.adobe.com/AdobeSVGViewerExtensions/3.0/"
	 x="0px" y="0px" width="70px" height="60px" viewBox="-0.415 -0.726 7 6" enable-background="new -0.415 -0.726 7 6"
	 xml:space="preserve">
<defs>
</defs>
<ellipse fill-rule="evenodd" clip-rule="evenodd" fill="#FFFFFF" cx="2.905" cy="1.27" rx="1.004" ry="0.973"/>
<ellipse fill-rule="evenodd" clip-rule="evenodd" fill="#FFFFFF" cx="2.835" cy="3.899" rx="0.5" ry="0.508"/>
<path fill-rule="evenodd" clip-rule="evenodd" fill="#FFFFFF" d="M4.856,2.813C4.849,2.595,4.723,2.38,4.467,2.338
	C4.414,2.305,4.352,2.282,4.28,2.272C4.209,2.228,4.127,2.196,4.022,2.196H4.007c-0.06,0-0.109,0.016-0.157,0.032
	C3.897,1.95,3.746,1.633,3.382,1.633c-0.055,0-0.099,0.016-0.144,0.029C3.162,1.597,3.06,1.555,2.929,1.555
	c-0.093,0-0.168,0.024-0.234,0.06c-0.063-0.033-0.131-0.06-0.219-0.06c-0.296,0-0.45,0.212-0.474,0.44
	c-0.025,0.074-0.04,0.152-0.034,0.231C1.927,2.211,1.887,2.196,1.835,2.196c-0.063,0-0.115,0.017-0.166,0.034
	c-0.033-0.006-0.062-0.018-0.1-0.018c-0.151,0-0.263,0.058-0.343,0.142c-0.22,0.04-0.345,0.204-0.375,0.393
	c-0.038,0.082-0.062,0.17-0.057,0.262C0.76,3.124,0.753,3.249,0.795,3.362c0.017,0.235,0.172,0.459,0.477,0.459
	c0.055,0,0.089-0.025,0.132-0.04c0.058,0.024,0.122,0.04,0.196,0.04c0.049,0,0.084-0.018,0.125-0.028
	c0.018,0.005,0.039,0.007,0.058,0.012c0.002,0,0.003,0.001,0.005,0.001h0c0.025,0.006,0.048,0.016,0.078,0.016
	s0.05-0.012,0.073-0.021c0.042,0,0.085-0.002,0.126-0.004c0.017,0.004,0.031,0.01,0.051,0.01c0.021,0,0.033-0.012,0.053-0.014
	c0.014-0.001,0.027,0,0.041-0.001c0.055-0.007,0.098-0.029,0.143-0.048c0.004-0.002,0.01-0.002,0.013-0.004
	c0.078-0.036,0.145-0.083,0.194-0.145c0.148,0.118,0.35,0.161,0.521,0.101C3.156,3.75,3.247,3.79,3.366,3.79
	c0.006,0,0.011-0.003,0.017-0.003c0.052,0.018,0.106,0.035,0.171,0.035c0.038,0,0.065-0.015,0.099-0.021
	c0.035,0.007,0.064,0.021,0.104,0.021c0.027,0,0.047-0.009,0.07-0.014c0.024,0.003,0.043,0.014,0.07,0.014
	c0.024,0,0.042-0.008,0.063-0.013c0.019,0.002,0.033,0.011,0.054,0.011c0.031,0.015,0.06,0.033,0.103,0.033
	c0.055,0,0.099-0.016,0.144-0.029c0.041,0.01,0.074,0.029,0.122,0.029c0.336,0,0.493-0.271,0.479-0.531
	C4.939,3.166,4.94,2.968,4.856,2.813z"/>
<path fill-rule="evenodd" clip-rule="evenodd" d="M3.522,3.774C3.468,3.531,3.281,3.318,3.039,3.249
	C2.958,2.501,3.748,1.996,4.395,2.362c0.312,0.189,0.476,0.496,0.452,0.862L4.83,3.338L4.799,3.45L4.74,3.58L4.671,3.69L4.623,3.747
	L4.6,3.774H3.522 M1.061,3.774C0.005,2.327,2.6,1.466,2.623,3.249C2.378,3.312,2.191,3.531,2.134,3.774H1.061z M0,4.057V3.773h0.609
	c-0.472-0.854,0.134-1.89,1.105-1.9c-0.959-2.48,3.176-2.513,2.229,0c0.977,0.01,1.584,1.042,1.11,1.901L5.67,3.773v0.284
	L4.838,4.056H3.529c-0.172,0.755-1.214,0.756-1.389,0L0,4.057z M3.26,3.915L3.161,3.642L2.909,3.496L2.622,3.546L2.435,3.77v0.29
	l0.187,0.223l0.287,0.051l0.252-0.146L3.26,3.915z M3.736,1.252L3.632,0.831L3.344,0.505L2.938,0.352L2.507,0.405L2.15,0.651
	L1.948,1.036C1.716,2.367,3.642,2.601,3.736,1.252z"/>
</svg>
