<?xml version="1.0" encoding="UTF-8"?>

<!DOCTYPE svg PUBLIC "-//W3C//DTD SVG 1.1//EN"
  "http://www.w3.org/Graphics/SVG/1.1/DTD/svg11.dtd" [
 <!ATTLIST g apsname CDATA #IMPLIED>
]>

<svg
 xmlns="http://www.w3.org/2000/svg"
 xmlns:xlink="http://www.w3.org/1999/xlink"
 xmlns:ev="http://www.w3.org/2001/xml-events"
 version="1.1"
 width="42.00pt" height="60.00pt"
 viewBox="0 0 13.59 19.44"
 stroke-linejoin="round" stroke-linecap="round" fill="none" fill-rule="evenodd"
 preserveAspectRatio="xMidYMid meet"
 zoomAndPan="magnify">

<rect fill="#FFFFFF" stroke="none" x="0" y="0" width="13.59" height="19.44"/>

<g id="0003.cgm">
<g id="IC_ColorNameTable.IC_ColorNameTable">
</g>
<g id="IC_ViewportTable.IC_ViewportTable">
</g>
<g id="PictureProperties.0003.cgm">
</g>
<clipPath id="cp1" clip-rule="evenodd">
 <path d=" M0 1 L12.59 1 L12.59 19.44 L0 19.44 Z"/>
</clipPath>

<g clip-path="url(#cp1)" clip-rule="evenodd">

<path class="fs2" d="M3.36 18.3L0 18.3L0 17.45L3.36 17.45Z
"/>
<path class="fs2" d="M5.82 17.45L9.18 17.45L9.18 18.3L5.82 18.3Z
"/>
<path class="ls2" d="M2.63 6.72l3.93 0M2.63 6.72"/>
<path class="ls2" d="M6.32 6.71l.48 -.27 .38 -.33 .26 -.38 .13 -.4M6.32 6.71"/>
<path class="ls2" d="M2.36 3.83l-.37 .33 -.26 .37 -.13 .4 0 .41 .14 .4 .26 .37 .38 .33 .48 .27M2.36 3.83"/>
<path class="ls2" d="M9.15 1.75l-.31 -.21 -.36 -.16 -.39 -.1 -.4 -.04 -.41 .03 -.39 .09 -.36 .15 -.32 .21 -.26 .25M9.15 1.75"/>
<path class="ls2" d="M5.95 1.97l-.34 .04 -.31 .08 -.28 .12 -.23 .15 -.17 .18M5.95 1.97"/>
<path class="ls2" d="M4.63 2.53l-.39 .27M4.63 2.53"/>
<path class="ls2" d="M7.58 5.33l.55 -.07 .52 -.11 .46 -.15 .39 -.18 .3 -.2M7.58 5.33"/>
<path class="ls2" d="M11.87 3.14l.16 -.19 .09 -.2 .02 -.21 -.05 -.21 -.12 -.2 -.19 -.18 -.25 -.16 -.3 -.12 -.34 -.09 -.36 -.05 -.37 -.01 -.36 .03 -.35 .07 -.31 .11M11.87 3.14"/>
<path class="ls2" d="M9.81 4.61l.5 -.02 .48 -.06 .45 -.09 .39 -.12 .32 -.15 .23 -.17 .14 -.18 .04 -.18 -.06 -.18 -.16 -.17 -.26 -.15M9.81 4.61"/>
<path class="ls2" d="M4.24 2.81l-.39 .03 -.37 .07 -.34 .12 -.29 .16 -.23 .19 -.17 .22 -.09 .23M4.24 2.81"/>
<circle class="ls3 fs1" cx="4.59" cy="17.87" r="1.3"/>
<path class="ls2" d="M6.56 6.72l0 10.73M6.56 6.72"/>
<path class="ls2" d="M2.63 6.72l0 10.73M2.63 6.72"/>
</g>
<g transform="translate(2.69,14.35)">
 <g transform="rotate(-45.00)">
  <g transform="skewX(180.00)">
  </g>
 </g>
</g>


<style type="text/css">
.aps-region:hover{stroke:red;opacity:0.5;}
.ls1{stroke:none;}
.ls2{stroke:#000001;stroke-width:0.467;}
.ls3{stroke:#000001;stroke-width:0.463;}
.fs1{fill:none;}
.fs2{fill:#000001;}
</style>

</g>
</svg>
