<?xml version="1.0" encoding="UTF-8"?>

<!DOCTYPE svg PUBLIC "-//W3C//DTD SVG 1.1//EN"
  "http://www.w3.org/Graphics/SVG/1.1/DTD/svg11.dtd" [
 <!ATTLIST g apsname CDATA #IMPLIED>
]>

<svg
 xmlns="http://www.w3.org/2000/svg"
 xmlns:xlink="http://www.w3.org/1999/xlink"
 xmlns:ev="http://www.w3.org/2001/xml-events"
 version="1.1"
 width="30.00pt" height="51.00pt"
 viewBox="0 0 9.65 16.44"
 stroke-linejoin="round" stroke-linecap="round" fill="none" fill-rule="evenodd"
 preserveAspectRatio="xMidYMid meet"
 zoomAndPan="magnify">

<rect fill="#FFFFFF" stroke="none" x="0" y="0" width="9.65" height="16.44"/>

<g id="0023.cgm">
<g id="IC_ColorNameTable.IC_ColorNameTable">
</g>
<g id="IC_ViewportTable.IC_ViewportTable">
</g>
<g id="PictureProperties.0023.cgm">
</g>
<clipPath id="cp1" clip-rule="evenodd">
 <path d=" M0 1 L8.65 1 L8.65 16.44 L0 16.44 Z"/>
</clipPath>

<g clip-path="url(#cp1)" clip-rule="evenodd">

<path class="ls2" d="M1.66 4.19l0 -2.79 5.33 0 0 2.79 -5.33 0M1.66 4.19"/>
<path class="ls2" d="M1.85 14.31l1.2 -10.1M1.85 14.31"/>
<path class="ls2" d="M6.8 14.31l-1.2 -10.1M6.8 14.31"/>
<path class="fs2" d="M5.49 15.38L8.64 15.38L8.64 14.31L5.49 14.31Z
"/>
<path class="fs2" d="M3.16 14.31L0 14.31L0 15.38L3.16 15.38Z
"/>
<circle class="ls3 fs1" cx="4.32" cy="14.85" r="1.27"/>
</g>
<g transform="translate(1.85,11.62)">
 <g transform="rotate(-45.00)">
  <g transform="skewX(180.00)">
  </g>
 </g>
</g>


<style type="text/css">
.aps-region:hover{stroke:red;opacity:0.5;}
.ls1{stroke:none;}
.ls2{stroke:#000001;stroke-width:0.763;}
.ls3{stroke:#000001;stroke-width:0.508;}
.fs1{fill:none;}
.fs2{fill:#000001;}
</style>

</g>
</svg>
